<?xml version="1.0" encoding="UTF-8" standalone="no"?>
<svg
   xmlns:dc="http://purl.org/dc/elements/1.1/"
   xmlns:cc="http://creativecommons.org/ns#"
   xmlns:rdf="http://www.w3.org/1999/02/22-rdf-syntax-ns#"
   xmlns:svg="http://www.w3.org/2000/svg"
   xmlns="http://www.w3.org/2000/svg"
   xmlns:sodipodi="http://sodipodi.sourceforge.net/DTD/sodipodi-0.dtd"
   xmlns:inkscape="http://www.inkscape.org/namespaces/inkscape"
   viewBox="0 0 1014.1937 888.16949"
   version="1.1"
   id="svg4"
   sodipodi:docname="logo-3.svg"
   width="1014.1937"
   height="888.16949"
   inkscape:version="0.92.3 (2405546, 2018-03-11)">
  <metadata
     id="metadata10">
    <rdf:RDF>
      <cc:Work
         rdf:about="">
        <dc:format>image/svg+xml</dc:format>
        <dc:type
           rdf:resource="http://purl.org/dc/dcmitype/StillImage" />
        <dc:title></dc:title>
      </cc:Work>
    </rdf:RDF>
  </metadata>
  <defs
     id="defs8" />
  <sodipodi:namedview
     pagecolor="#ffffff"
     bordercolor="#666666"
     borderopacity="1"
     objecttolerance="10"
     gridtolerance="10"
     guidetolerance="10"
     inkscape:pageopacity="0"
     inkscape:pageshadow="2"
     inkscape:window-width="1920"
     inkscape:window-height="1025"
     id="namedview6"
     showgrid="false"
     inkscape:zoom="0.4609375"
     inkscape:cx="16.428706"
     inkscape:cy="544.75347"
     inkscape:window-x="1440"
     inkscape:window-y="27"
     inkscape:window-maximized="1"
     inkscape:current-layer="svg4"
     fit-margin-top="3"
     fit-margin-left="3"
     fit-margin-right="3"
     fit-margin-bottom="3" />
  <path
     id="path83924"
     d="M 916.67556,885.1695 H 97.518145 C 45.31657,885.1695 3,842.85292 3,790.65133 V 97.518163 C 3,45.316573 45.31657,3 97.518145,3 H 916.67556 c 52.20159,0 94.51804,42.316573 94.51804,94.518163 V 790.65133 c 0,52.20159 -42.31645,94.51817 -94.51804,94.51817 z M 255.04842,176.28329 c -43.50001,0 -78.76515,35.26512 -78.76515,78.76513 0,43.50001 35.26514,78.76513 78.76515,78.76513 43.50002,0 78.76513,-35.26512 78.76513,-78.76513 0,-43.50001 -35.26512,-78.76513 -78.76513,-78.76513 z m 0,189.03631 c -43.50001,0 -78.76515,35.26512 -78.76515,78.76514 0,43.50002 35.26514,78.76514 78.76515,78.76514 43.50002,0 78.76513,-35.26512 78.76513,-78.76514 0,-43.50002 -35.26512,-78.76514 -78.76513,-78.76514 z m 0,189.03633 c -43.50001,0 -78.76515,35.26512 -78.76515,78.76514 0,43.50001 35.26514,78.76512 78.76515,78.76512 43.50002,0 78.76513,-35.26511 78.76513,-78.76512 0,-43.50002 -35.26512,-78.76514 -78.76513,-78.76514 z M 822.15737,286.55448 v -63.01211 c 0,-13.04942 -10.58014,-23.62953 -23.62954,-23.62953 H 404.70217 c -13.04941,0 -23.62953,10.58011 -23.62953,23.62953 v 63.01211 c 0,13.04941 10.58013,23.62954 23.62953,23.62954 h 393.82567 c 13.0494,0 23.62953,-10.58013 23.62953,-23.62954 z m 0,189.03632 v -63.0121 c 0,-13.04942 -10.58014,-23.62956 -23.62954,-23.62956 H 404.70217 c -13.04941,0 -23.62953,10.58014 -23.62953,23.62956 v 63.0121 c 0,13.0494 10.58013,23.62954 23.62953,23.62954 h 393.82567 c 13.0494,0 23.62953,-10.58014 23.62953,-23.62954 z m 0,189.03631 v -63.0121 c 0,-13.04942 -10.58014,-23.62955 -23.62954,-23.62955 H 404.70217 c -13.04941,0 -23.62953,10.58013 -23.62953,23.62955 v 63.0121 c 0,13.04941 10.58013,23.62954 23.62953,23.62954 h 393.82567 c 13.0494,0 23.62953,-10.58013 23.62953,-23.62954 z"
     inkscape:connector-curvature="0"
     style="stroke-width:1.96912837;fill:#00b24f;fill-opacity:1" />
</svg>
